#!OML:ASF H:\Terrain\Patient Classification 1\Walking\steve\steve.ASF
:FULLY-SPECIFIED
:DEGREES
1
root 7.34509 15.2054 -40.0638 5.32263 -0.236539 3.57568
lowerback 2.00944 0.415224 -4.27735
upperback -2.51633 0.410102 0.522189
thorax -3.76074 0.331245 2.91695
lowerneck -7.26979 -1.03313 -3.02783
upperneck 14.4187 -1.43497 2.86482
head 5.58455 -0.660179 1.29742
rclavicle 3.14949e-015 1.98785e-015
rhumerus -59.538 -29.3786 -51.1294
rradius 15.8321
rwrist 31.8871
rhand -13.2967 -33.8582
rfingers 7.12502
rthumb 12.8072 -63.4453
lclavicle 3.14949e-015 1.98785e-015
lhumerus -23.1892 -9.80022 90.3906
lradius 31.7872
lwrist 11.0641
lhand -28.3964 -19.0258
lfingers 7.12502
lthumb -1.76873 10.9466
rfemur -41.1599 1.77808 19.6756
rtibia 44.4578
rfoot -15.2973 1.87251
rtoes -8.48076
lfemur -3.39691 1.27365 -28.9562
ltibia 20.9093
lfoot -21.0304 -6.9759
ltoes -11.9261
2
root 7.35212 15.1704 -39.8307 5.58795 0.131436 3.69845
lowerback 1.84417 0.31856 -4.40887
upperback -2.66836 0.278349 0.447215
thorax -3.8151 0.272042 2.92043
lowerneck -6.60137 -1.12991 -2.72734
upperneck 13.8013 -1.58906 2.72387
head 5.27951 -0.734901 1.19444
rclavicle -5.13113e-015 -1.11319e-014
rhumerus -62.4362 -31.4986 -46.4422
rradius 15.12
rwrist 36.4223
rhand -24.6791 -28.2457
rfingers 7.12502
rthumb 1.82151 -58.2177
lclavicle -5.13113e-015 -1.11319e-014
lhumerus -22.945 -11.018 90.2714
lradius 33.6998
lwrist 12.3566
lhand -28.5657 -17.934
lfingers 7.12502
lthumb -1.9323 12.037
rfemur -41.8883 1.56034 19.6171
rtibia 41.4228
rfoot -14.7785 2.0183
rtoes -8.24523
lfemur -1.68166 0.521814 -29.0299
ltibia 18.584
lfoot -17.9383 -10.109
ltoes 8.35426
3
root 7.35371 15.1419 -39.6032 5.86377 0.583337 3.81983
lowerback 1.6961 0.212699 -4.60004
upperback -2.78133 0.133483 0.403692
thorax -3.83798 0.207293 2.99033
lowerneck -6.54247 -1.08324 -2.54131
upperneck 13.6744 -1.54096 2.68242
head 5.22701 -0.70521 1.15406
rclavicle -7.67806e-015 -1.98785e-015
rhumerus -65.7761 -33.6753 -41.0089
rradius 14.8633
rwrist 42.7437
rhand -21.5036 -29.4779
rfingers 7.12502
rthumb 4.88814 -59.4015
lclavicle -7.67806e-015 -1.98785e-015
lhumerus -22.3652 -11.8101 90.1217
lradius 35.0613
lwrist 13.3894
lhand -28.6944 -17.231
lfingers 7.12502
lthumb -2.05655 12.7389
rfemur -42.5345 1.40361 19.5173
rtibia 38.4362
rfoot -13.9454 2.3036
rtoes -4.90093
lfemur 0.0296376 1.01859 -29.0187
ltibia 16.4205
lfoot -17.1312 -10.968
ltoes 9.68517
4
root 7.35264 15.1285 -39.3776 6.12197 1.07983 4.13584
lowerback 1.5591 0.0932163 -4.95812
upperback -2.84249 -0.0368686 0.283372
thorax -3.81118 0.131479 3.07514
lowerneck -6.90564 -1.10853 -2.46448
upperneck 14.0365 -1.60189 2.80719
head 5.40332 -0.719053 1.17542
rclavicle 1.71265e-014 -1.94809e-014
rhumerus -69.3951 -35.7823 -35.2152
rradius 14.4058
rwrist 48.3618
rhand -20.4153 -30.1967
rfingers 7.12502
rthumb 5.93886 -60.0934
lclavicle 1.71265e-014 -1.94809e-014
lhumerus -21.606 -13.2137 89.9374
lradius 36.4453
lwrist 14.9672
lhand -28.864 -17.6203
lfingers 7.12502
lthumb -2.22038 12.3478
rfemur -43.0937 1.27368 19.0862
rtibia 35.4644
rfoot -13.2076 2.62899
rtoes -2.78679
lfemur 1.88633 1.76862 -29.1165
ltibia 13.8609
lfoot -15.824 -12.0537
ltoes 11.0375
5
root 7.35446 15.1456 -39.1491 6.43742 1.52594 4.4297
lowerback 1.33541 -0.0895646 -5.33977
upperback -2.93022 -0.283764 0.262237
thorax -3.75432 0.0195885 3.27856
lowerneck -7.16558 -0.587155 -2.4487
upperneck 13.4292 -0.93825 3.23132
head 5.242 -0.365199 1.34731
rclavicle -4.09372e-015 4.37326e-015
rhumerus -72.5243 -37.04 -30.2205
rradius 13.8674
rwrist 52.2767
rhand -20.9699 -30.1352
rfingers 7.12502
rthumb 5.40339 -60.0463
lclavicle -4.09372e-015 4.37326e-015
lhumerus -20.7297 -14.0386 89.6931
lradius 37.5409
lwrist 15.9219
lhand -28.4525 -19.0988
lfingers 7.12502
lthumb -1.82298 10.8731
rfemur -43.6612 1.39721 18.477
rtibia 32.6881
rfoot -12.7455 2.74772
rtoes -3.53014
lfemur 3.8437 2.78474 -29.1722
ltibia 11.0665
lfoot -14.8111 -12.3733
ltoes 8.03411
